Coordinates
version=1
nRows=27
nColumns=12
inDegrees=yes

Units are S.I. units (second, meters, Newtons, ...)
Angles are in degrees

endheader
time	SC_y	SC_z	SC_x	AC_y	AC_z	AC_x	GH_y	GH_z	GH_yy	EL_x	PS_y
       0.0              -34.45          22.45          48.93          59.67          1.794          8.373         -168.8          36.91         -106.8          23.01           8.25
   0.01634              -34.45          22.45          48.93          59.66          1.791          8.369         -168.8          36.91         -106.8          23.01          8.254
   0.03268              -34.45          22.45          48.93          59.66          1.788          8.365         -168.7           36.9         -106.8          23.02          8.258
   0.04902              -34.46          22.45          48.92          59.66          1.786          8.361         -168.7           36.9         -106.7          23.02          8.263
   0.06536              -34.46          22.45          48.92          59.66          1.783          8.356         -168.7           36.9         -106.7          23.02          8.268
   0.08169              -34.46          22.44          48.92          59.65           1.78          8.351         -168.6           36.9         -106.7          23.02          8.273
   0.09803              -34.46          22.44          48.92          59.65          1.776          8.345         -168.6           36.9         -106.7          23.02          8.279
    0.1144              -34.46          22.44          48.92          59.65          1.773           8.34         -168.6           36.9         -106.7          23.02          8.285
    0.1307              -34.47          22.44          48.91          59.64          1.769          8.333         -168.5           36.9         -106.7          23.02          8.292
     0.147              -34.47          22.43          48.91          59.64          1.765          8.327         -168.5           36.9         -106.7          23.02          8.299
    0.1634              -34.47          22.43          48.91          59.63           1.76           8.32         -168.4          36.89         -106.7          23.02          8.307
    0.1797              -34.47          22.43           48.9          59.63          1.755          8.312         -168.4          36.89         -106.6          23.02          8.315
    0.1961              -34.48          22.42           48.9          59.63           1.75          8.304         -168.3          36.89         -106.6          23.03          8.323
    0.2124              -34.48          22.42           48.9          59.62          1.745          8.295         -168.3          36.89         -106.6          23.03          8.333
    0.2287              -34.48          22.42          48.89          59.61          1.739          8.285         -168.2          36.89         -106.6          23.03          8.343
    0.2451              -34.49          22.41          48.89          59.61          1.732          8.275         -168.2          36.89         -106.6          23.03          8.354
    0.2614              -34.49          22.41          48.88           59.6          1.725          8.263         -168.1          36.88         -106.6          23.03          8.366
    0.2778               -34.5           22.4          48.88          59.59          1.717          8.251         -168.0          36.88         -106.5          23.04           8.38
    0.2941               -34.5           22.4          48.87          59.59          1.709          8.237         -167.9          36.88         -106.5          23.04          8.394
    0.3104              -34.51          22.39          48.86          59.58            1.7          8.222         -167.8          36.87         -106.5          23.04           8.41
    0.3268              -34.51          22.39          48.86          59.57           1.69          8.206         -167.7          36.87         -106.4          23.04          8.427
    0.3431              -34.52          22.38          48.85          59.56          1.678          8.188         -167.6          36.87         -106.4          23.05          8.446
    0.3595              -34.52          22.37          48.84          59.55          1.666          8.168         -167.5          36.86         -106.4          23.05          8.467
    0.3758              -34.53          22.36          48.83          59.53          1.652          8.146         -167.3          36.86         -106.3          23.05          8.491
    0.3921              -34.54          22.35          48.82          59.52          1.637          8.122         -167.2          36.85         -106.3          23.06          8.516
    0.4085              -34.55          22.34          48.81           59.5           1.62          8.094         -167.0          36.85         -106.2          23.06          8.545
    0.4248              -34.56          22.33          48.79          59.49          1.601          8.064         -166.8          36.84         -106.2          23.07          8.578
